<?xml version="1.0" standalone="no"?>
<!DOCTYPE svg PUBLIC "-//W3C//DTD SVG 20010904//EN"
 "http://www.w3.org/TR/2001/REC-SVG-20010904/DTD/svg10.dtd">
<svg version="1.0" xmlns="http://www.w3.org/2000/svg"
 width="1920.000000pt" height="1920.000000pt" viewBox="0 0 1920.000000 1920.000000"
 preserveAspectRatio="xMidYMid meet">

<g transform="translate(0.000000,1920.000000) scale(0.100000,-0.100000)"
fill="#000000" stroke="none">
<path d="M3418 18487 c-95 -27 -167 -95 -194 -183 -30 -101 -8 -183 66 -247
54 -46 98 -61 162 -55 87 9 135 67 105 128 -13 24 -13 30 -2 30 26 0 55 -51
55 -96 0 -36 -6 -49 -35 -78 -41 -41 -87 -56 -171 -56 -81 0 -143 21 -294 98
-280 145 -415 168 -610 106 -120 -38 -219 -115 -293 -227 -41 -63 -77 -156
-77 -201 0 -44 38 -80 85 -80 30 0 45 10 98 62 38 37 85 72 122 89 54 25 71
28 165 28 l105 0 171 -82 c207 -101 289 -124 439 -126 114 -2 207 18 296 63
103 53 206 170 249 285 73 193 -26 435 -212 520 -68 31 -164 40 -230 22z
m-593 -522 c41 -13 136 -56 212 -94 76 -38 155 -74 176 -81 59 -18 39 -21 -33
-4 -36 8 -135 48 -220 89 -146 70 -226 99 -295 108 -16 2 -4 5 28 6 39 1 83
-7 132 -24z"/>
<path d="M740 17690 c0 -842 -1 -828 56 -847 54 -18 86 1 141 82 23 33 85 112
138 175 157 186 209 271 245 401 24 87 26 187 5 255 -20 65 -19 71 10 78 15 4
27 16 31 31 7 29 13 30 78 10 68 -21 168 -19 255 5 132 37 212 86 416 257 72
59 154 123 183 142 58 37 76 75 59 125 -20 57 -5 56 -847 56 l-770 0 0 -770z
m1240 560 c-127 -109 -227 -172 -319 -200 -77 -24 -111 -25 -181 -4 -52 15
-73 33 -150 122 -28 32 -83 30 -117 -4 -24 -24 -25 -31 -20 -84 4 -32 8 -65 9
-72 2 -7 -3 -12 -10 -10 -7 1 -40 5 -72 9 -53 5 -60 4 -84 -20 -34 -34 -36
-89 -3 -117 88 -77 106 -98 121 -150 9 -29 16 -70 16 -89 -1 -50 -38 -156 -80
-225 -33 -55 -154 -208 -168 -214 -4 -1 -6 243 -4 543 l2 545 547 0 547 0 -34
-30z"/>
<path d="M6070 18313 c-232 -23 -360 -78 -360 -153 0 -54 33 -75 138 -89 306
-39 599 -173 952 -434 52 -39 185 -145 295 -236 494 -409 674 -536 930 -661
427 -208 862 -231 1221 -66 189 88 351 245 435 421 53 111 69 181 69 305 0
180 -47 299 -164 416 -120 119 -262 169 -418 144 -207 -32 -352 -182 -365
-378 -9 -131 23 -195 98 -195 38 0 67 27 79 77 17 70 42 106 89 134 87 51 212
31 282 -45 56 -59 74 -110 74 -208 0 -79 -3 -97 -29 -150 -17 -33 -55 -85 -85
-116 -112 -111 -248 -161 -436 -162 -200 -1 -383 48 -595 160 -218 114 -353
214 -715 528 -419 364 -633 509 -892 609 -201 78 -434 116 -603 99z m332 -198
c122 -25 227 -64 348 -127 212 -111 342 -207 675 -493 285 -246 419 -352 557
-444 241 -161 465 -256 698 -296 l75 -13 -81 -1 c-161 -2 -372 57 -589 163
-204 101 -396 233 -684 470 -473 390 -556 454 -731 564 -103 64 -235 136 -315
169 -61 26 -49 28 47 8z m2993 -364 c28 -16 61 -41 75 -56 19 -22 14 -19 -25
10 -27 21 -68 46 -90 56 -22 10 -33 19 -25 19 8 0 38 -13 65 -29z"/>
<path d="M4675 18219 c-111 -13 -261 -52 -373 -99 -192 -81 -373 -230 -483
-400 -63 -98 -81 -135 -120 -247 -39 -111 -52 -204 -47 -341 3 -110 4 -115 31
-138 35 -30 78 -31 112 -1 22 19 28 35 36 102 14 108 25 157 56 233 92 232
261 406 478 493 421 168 1006 19 1639 -418 221 -153 440 -329 850 -683 536
-463 727 -615 981 -784 473 -314 877 -477 1360 -547 119 -18 199 -22 390 -23
254 -1 354 5 500 30 250 42 453 102 680 201 337 145 467 219 640 365 155 130
215 198 533 603 275 351 553 534 952 627 83 20 123 22 320 22 221 0 227 -1
345 -32 256 -67 434 -194 487 -345 24 -73 24 -189 -2 -246 -11 -24 -34 -59
-50 -78 -39 -44 -40 -90 -3 -128 25 -24 32 -26 78 -21 72 9 172 61 232 121 57
58 114 161 137 252 20 78 21 231 1 307 -49 188 -211 364 -440 479 -344 172
-874 228 -1215 128 -216 -63 -418 -188 -649 -400 -93 -84 -315 -324 -428 -461
-31 -39 -61 -70 -65 -70 -4 0 -8 37 -8 83 0 389 -239 712 -634 858 -344 127
-696 87 -927 -105 -127 -105 -229 -297 -244 -461 -21 -225 89 -431 282 -527
94 -47 162 -61 281 -56 83 3 106 7 162 34 76 36 145 101 180 170 20 39 25 64
25 121 0 63 -3 76 -30 115 -39 54 -115 94 -209 108 -105 16 -133 31 -147 79
-24 80 29 173 119 208 110 42 326 9 485 -74 284 -149 312 -431 74 -728 -223
-276 -618 -480 -1067 -551 -141 -23 -535 -26 -675 -6 -606 87 -1155 334 -1874
845 -86 61 -290 211 -454 334 -731 548 -907 668 -1212 821 -225 113 -405 174
-650 218 -98 18 -332 25 -440 13z m348 -176 c-7 -2 -19 -2 -25 0 -7 3 -2 5 12
5 14 0 19 -2 13 -5z m220 -38 c284 -72 599 -230 962 -485 88 -62 354 -257 590
-435 616 -462 907 -659 1245 -845 661 -364 1369 -512 1980 -414 541 86 991
344 1228 703 88 134 123 237 130 378 4 94 1 122 -17 181 -61 202 -248 352
-525 422 -177 45 -332 36 -456 -26 -114 -57 -178 -155 -188 -284 -12 -167 82
-273 270 -306 126 -22 149 -45 109 -110 -45 -74 -126 -109 -235 -102 -101 7
-182 45 -250 119 -68 73 -91 134 -89 244 2 234 174 431 433 496 119 30 306 23
430 -16 307 -96 506 -284 577 -545 25 -90 24 -328 -1 -420 -40 -150 -87 -250
-173 -365 -169 -227 -448 -412 -793 -526 -583 -192 -1215 -181 -1815 32 -136
48 -405 180 -555 270 -249 151 -537 368 -874 658 -609 525 -764 653 -969 805
-415 306 -751 481 -1112 577 -88 24 -99 29 -55 24 30 -3 99 -17 153 -30z
m8160 -490 c381 -58 647 -180 785 -361 71 -94 97 -176 89 -288 -3 -44 -12 -99
-20 -121 l-14 -40 -7 60 c-45 363 -404 598 -961 630 -188 11 -414 -21 -608
-85 -104 -35 -286 -120 -368 -172 -86 -55 -88 -53 -14 16 200 189 424 310 665
361 89 19 327 18 453 0z"/>
<path d="M14850 18133 c-348 -18 -716 -69 -1031 -144 -157 -37 -187 -62 -166
-141 10 -38 48 -54 147 -62 319 -26 640 -172 855 -390 50 -50 105 -108 123
-128 48 -54 75 -51 214 21 633 332 1436 344 2073 31 258 -126 448 -262 650
-465 313 -313 455 -607 455 -940 0 -222 -65 -390 -205 -530 -134 -135 -269
-190 -445 -183 -81 3 -105 8 -160 35 -211 100 -299 362 -167 495 97 96 243
102 349 13 61 -51 148 -17 148 58 0 56 -92 162 -191 220 -89 52 -164 69 -279
65 -97 -3 -111 -6 -184 -41 -149 -71 -269 -220 -312 -388 -20 -77 -22 -204 -5
-279 46 -198 226 -402 427 -484 182 -74 406 -74 618 0 466 162 781 708 726
1256 -53 539 -377 1018 -921 1363 -392 249 -965 449 -1571 549 -350 58 -821
87 -1148 69z m810 -197 c370 -41 748 -123 1088 -235 220 -73 317 -112 496
-202 264 -133 430 -251 611 -434 189 -190 327 -406 399 -625 44 -135 55 -198
18 -100 -206 537 -771 1037 -1409 1249 -127 42 -337 92 -473 113 -115 18 -536
17 -655 0 -293 -44 -513 -110 -767 -229 l-96 -45 -84 84 c-158 160 -360 286
-582 362 -10 4 -17 9 -14 11 8 8 273 44 428 59 203 19 842 14 1040 -8z m1386
-2110 c-107 -132 -122 -302 -40 -474 40 -83 133 -188 211 -238 62 -40 187 -84
240 -84 21 0 45 -5 53 -10 24 -15 -114 -12 -195 5 -192 40 -361 188 -415 364
-39 123 -19 254 55 365 30 46 114 126 132 126 2 0 -17 -24 -41 -54z"/>
<path d="M1370 17793 c0 -94 31 -363 46 -398 9 -21 47 -69 85 -107 58 -58 68
-72 59 -88 -34 -64 20 -140 89 -125 63 14 169 157 187 252 5 28 11 33 53 43
89 21 209 109 232 169 12 29 -3 78 -28 97 -22 16 -67 18 -94 3 -17 -9 -28 -2
-77 51 -86 93 -120 107 -314 125 -90 8 -180 15 -200 15 -37 0 -38 -1 -38 -37z
m408 -205 c23 -23 42 -46 42 -51 0 -15 -122 -2 -158 17 l-33 17 17 -33 c19
-36 32 -158 17 -158 -5 0 -28 19 -51 43 -40 41 -41 45 -50 130 -4 48 -7 89 -5
90 1 2 42 -1 90 -5 85 -9 89 -10 131 -50z"/>
<path d="M4594 17755 c-199 -30 -386 -116 -511 -232 -35 -32 -43 -47 -43 -75
0 -21 9 -46 21 -62 26 -33 59 -34 179 -1 133 35 272 49 440 42 303 -12 557
-93 820 -264 92 -60 288 -248 358 -345 117 -160 233 -382 377 -723 170 -403
185 -437 261 -583 40 -78 100 -185 133 -237 249 -397 641 -698 1123 -864 251
-86 474 -122 758 -122 356 -1 650 66 952 217 117 58 138 77 138 124 0 75 -43
98 -151 80 -110 -18 -375 -23 -514 -11 -308 28 -625 118 -904 256 -285 142
-498 299 -709 520 -171 180 -283 347 -542 805 -228 403 -360 582 -597 810
-320 309 -703 531 -1085 629 -190 49 -349 61 -504 36z m1106 -500 c164 -107
260 -185 400 -325 208 -208 311 -355 573 -814 88 -154 185 -319 215 -365 256
-398 590 -705 998 -918 313 -163 618 -258 958 -298 71 -8 131 -17 133 -19 5
-5 -63 -20 -170 -38 -44 -8 -162 -13 -302 -13 -193 1 -249 4 -350 23 -241 44
-406 98 -605 197 -231 114 -372 218 -550 401 -204 211 -327 417 -520 874 -174
412 -204 479 -277 619 -171 329 -337 534 -569 702 -46 34 -84 63 -84 66 0 6 6
2 150 -92z"/>
<path d="M2525 17479 c-27 -5 -133 -31 -235 -59 -203 -56 -316 -80 -371 -80
-44 0 -59 -15 -59 -59 0 -56 -25 -171 -79 -370 -28 -102 -56 -212 -61 -245
-46 -286 76 -544 351 -739 115 -82 271 -151 567 -251 296 -101 409 -148 508
-211 161 -103 262 -240 304 -418 69 -287 -43 -568 -269 -675 -66 -32 -87 -37
-169 -40 -215 -10 -418 102 -507 280 -31 63 -35 80 -35 148 0 178 86 299 213
300 84 0 113 81 57 158 -58 81 -152 124 -270 123 -121 0 -222 -42 -298 -125
-156 -169 -167 -472 -27 -757 82 -168 216 -323 361 -418 311 -204 738 -199
1023 12 155 114 284 311 339 516 22 84 25 116 25 256 0 141 -3 172 -26 257
-84 315 -317 607 -631 790 -39 23 -167 86 -285 140 -360 165 -462 225 -569
337 -108 114 -165 262 -166 431 0 52 4 116 8 142 7 47 7 47 54 54 26 5 90 8
142 8 177 -1 320 -59 441 -177 108 -106 174 -218 329 -562 90 -200 144 -300
216 -401 181 -254 438 -438 712 -511 84 -23 118 -26 252 -27 182 -1 278 19
417 84 329 154 505 409 520 755 15 340 -146 645 -443 838 -180 117 -341 168
-524 168 -264 -1 -443 -137 -480 -364 -20 -128 29 -260 122 -327 77 -56 158
-26 158 57 0 125 125 213 300 213 68 0 85 -4 148 -35 178 -89 290 -292 280
-507 -3 -82 -8 -103 -40 -170 -158 -334 -691 -390 -981 -103 -124 123 -189
252 -322 644 -53 156 -119 331 -147 388 -193 398 -504 592 -853 532z m285
-188 c78 -25 155 -78 234 -161 134 -142 191 -256 316 -625 104 -308 158 -435
234 -549 139 -209 292 -319 521 -376 78 -20 107 -22 230 -17 105 4 158 11 210
27 196 62 352 187 424 341 48 103 63 174 62 293 -2 317 -214 605 -492 671
-165 39 -344 -7 -468 -120 l-54 -50 6 44 c10 75 53 131 131 171 67 34 72 35
185 34 102 0 127 -4 207 -31 135 -45 243 -112 349 -218 104 -104 165 -203 203
-329 32 -105 36 -295 9 -395 -67 -245 -265 -430 -537 -502 -117 -31 -300 -31
-415 0 -246 66 -488 248 -642 483 -41 62 -113 201 -185 357 -143 308 -181 381
-253 476 -185 245 -421 357 -721 342 -117 -6 -251 -31 -270 -51 -20 -19 -45
-153 -51 -270 -15 -300 97 -536 343 -721 93 -70 181 -118 464 -248 331 -152
432 -216 575 -361 132 -135 232 -305 276 -471 31 -114 31 -297 0 -415 -71
-271 -258 -471 -501 -537 -101 -27 -291 -23 -396 9 -336 101 -601 465 -582
798 9 152 91 262 209 277 l44 6 -52 -56 c-111 -123 -157 -301 -118 -466 66
-279 357 -491 675 -493 112 -1 187 15 289 63 155 72 280 228 342 429 21 66 24
95 24 235 0 190 -12 240 -87 394 -42 85 -65 118 -132 186 -152 155 -302 234
-706 370 -135 45 -279 97 -320 115 -242 105 -432 281 -483 445 -38 124 -29
227 40 465 25 85 52 191 62 235 l16 80 80 16 c44 10 151 38 238 63 236 69 338
77 467 37z"/>
<path d="M1400 17048 c-158 -60 -285 -192 -334 -348 -62 -195 -38 -330 106
-610 74 -144 97 -213 99 -290 2 -78 -16 -134 -57 -175 -29 -29 -42 -35 -78
-35 -45 0 -96 29 -96 55 0 11 6 11 30 -2 93 -46 167 95 111 211 -92 189 -351
177 -448 -22 -24 -48 -28 -69 -28 -137 1 -66 5 -90 28 -140 67 -144 222 -240
387 -238 202 2 385 149 456 366 23 70 27 98 27 197 -1 152 -23 233 -118 430
-90 190 -98 216 -93 316 5 105 39 178 120 261 52 53 62 68 62 98 0 48 -36 85
-83 84 -20 0 -61 -9 -91 -21z m-164 -598 c8 -30 48 -125 89 -210 41 -85 81
-184 89 -220 17 -72 14 -91 -4 -33 -7 21 -44 100 -82 176 -87 176 -118 267
-117 344 1 32 4 45 6 28 2 -16 11 -55 19 -85z"/>
<path d="M1890 15544 c-165 -29 -332 -101 -467 -203 -191 -144 -326 -348 -398
-600 -34 -120 -46 -206 -50 -356 -9 -333 80 -659 283 -1040 134 -250 258 -432
714 -1041 500 -669 663 -909 840 -1239 215 -403 335 -749 395 -1135 22 -145
25 -540 5 -675 -71 -470 -271 -869 -554 -1100 -294 -240 -582 -212 -731 72
-84 160 -117 374 -74 485 35 90 128 143 208 119 48 -14 63 -42 79 -147 14 -94
54 -170 108 -209 39 -27 52 -30 115 -30 57 0 82 5 121 25 69 35 134 104 170
180 27 56 31 79 34 162 5 119 -9 187 -56 281 -213 427 -867 357 -1088 -118
-133 -286 -95 -676 96 -978 173 -275 439 -425 759 -428 45 0 81 -4 81 -8 0 -4
-31 -33 -70 -64 -137 -113 -377 -335 -461 -428 -253 -276 -384 -516 -434 -794
-44 -242 -2 -633 96 -912 104 -294 279 -501 494 -583 83 -32 262 -39 354 -15
95 24 197 80 256 138 60 61 112 160 121 234 6 48 4 54 -21 77 -39 36 -85 35
-128 -4 -19 -16 -54 -39 -78 -50 -57 -26 -173 -26 -246 -2 -151 53 -278 232
-345 487 -31 116 -31 127 -32 340 -1 195 2 232 22 323 48 212 116 374 233 552
78 117 232 274 397 404 407 321 470 376 600 531 133 159 228 318 320 536 22
52 52 120 66 151 94 209 184 572 204 817 11 151 8 515 -7 631 -87 696 -365
1260 -990 2005 -69 83 -227 267 -351 411 -637 737 -869 1073 -1039 1501 -91
230 -126 401 -125 613 1 172 14 253 64 378 109 270 375 479 666 522 44 6 93
13 111 16 67 10 94 89 49 141 -24 28 -25 28 -158 30 -73 0 -144 -1 -158 -3z
m-733 -1366 c-3 -7 -5 -2 -5 12 0 14 2 19 5 13 2 -7 2 -19 0 -25z m87 -306
c164 -455 434 -863 1027 -1549 496 -573 666 -783 828 -1023 353 -521 518 -970
562 -1525 39 -501 -88 -1087 -315 -1453 -190 -306 -407 -478 -706 -558 -92
-25 -330 -26 -420 -1 -263 72 -450 271 -547 582 -25 82 -28 103 -28 245 0 140
3 162 26 232 32 92 103 203 167 258 63 54 173 106 252 120 169 30 327 -51 395
-202 34 -75 44 -176 25 -245 -16 -55 -81 -128 -124 -139 -42 -10 -60 18 -79
120 -29 152 -88 231 -196 263 -105 30 -238 -1 -324 -76 -83 -74 -135 -241
-123 -396 26 -336 205 -611 446 -686 73 -22 205 -27 282 -10 301 68 606 351
793 736 354 728 274 1680 -217 2580 -187 344 -384 635 -853 1260 -476 634
-621 847 -749 1104 -87 171 -162 385 -192 538 -23 122 -15 126 15 8 16 -61 40
-143 55 -183z m860 -6904 c-4 -7 -22 -35 -40 -63 -190 -300 -284 -682 -255
-1042 42 -516 278 -856 626 -899 l60 -7 -40 -14 c-109 -39 -263 -24 -365 35
-101 59 -214 201 -283 357 -35 80 -91 276 -112 395 -23 129 -31 389 -15 488
28 174 109 364 225 527 67 94 234 281 199 223z"/>
<path d="M3831 15366 c-23 -28 -3 -64 110 -199 222 -266 286 -458 334 -1009
28 -322 30 -333 56 -483 38 -209 103 -381 186 -490 46 -60 145 -129 215 -150
72 -21 166 -19 231 5 78 29 130 79 173 165 31 63 37 86 43 170 l6 97 64 -103
c157 -253 304 -422 450 -520 195 -131 440 -170 642 -102 l84 28 28 84 c52 155
45 314 -23 489 -82 212 -262 394 -599 603 l-103 64 97 6 c84 6 107 12 170 43
123 61 185 158 185 290 0 217 -159 379 -460 470 -165 49 -294 67 -795 111
-426 38 -644 117 -893 325 -134 113 -177 135 -201 106z m1044 -601 c83 -8 213
-19 290 -25 470 -37 737 -130 818 -285 29 -55 29 -143 1 -182 -35 -48 -108
-78 -189 -77 -114 1 -252 59 -585 249 -221 125 -550 329 -550 342 0 2 15 1 33
-2 17 -3 100 -12 182 -20z m-363 -372 c134 -210 146 -230 243 -403 112 -196
197 -367 226 -450 32 -93 32 -189 -1 -254 -35 -70 -68 -91 -138 -90 -213 2
-337 276 -382 839 -13 173 -38 429 -45 473 -3 17 -4 32 -1 32 2 0 47 -66 98
-147z m527 -148 c176 -119 441 -287 656 -415 408 -244 582 -444 613 -702 10
-79 -2 -196 -21 -215 -19 -19 -136 -31 -215 -21 -152 18 -282 87 -412 218
-101 103 -169 195 -297 407 -207 342 -404 647 -559 863 l-39 55 54 -39 c30
-21 129 -89 220 -151z"/>
<path d="M1709 15150 c-9 -5 -42 -42 -72 -82 -153 -200 -225 -466 -198 -732
44 -437 301 -939 680 -1330 222 -228 404 -361 801 -586 458 -259 625 -371 805
-542 221 -211 378 -424 520 -709 132 -267 227 -593 254 -874 11 -124 7 -434
-8 -535 -13 -87 -8 -124 22 -145 33 -23 90 -19 115 8 56 60 172 339 221 530
86 336 85 756 -3 1103 -106 417 -318 791 -603 1064 -240 230 -481 370 -1033
600 -397 165 -660 300 -828 422 -98 71 -285 266 -346 360 -120 184 -191 356
-238 570 -19 88 -22 134 -22 313 0 198 1 217 28 325 16 63 31 136 33 161 4 41
2 49 -22 68 -29 22 -78 27 -106 11z m209 -1583 c230 -317 528 -516 1167 -782
422 -176 587 -256 775 -380 124 -81 156 -107 274 -223 166 -164 271 -310 380
-529 100 -202 153 -365 198 -608 30 -162 32 -534 4 -689 -25 -135 -32 -153
-39 -96 -41 315 -63 427 -122 608 -155 481 -439 912 -800 1218 -177 149 -294
226 -671 441 -459 262 -606 365 -814 573 -140 140 -218 236 -325 400 -94 144
-98 150 -92 150 3 0 32 -37 65 -83z"/>
<path d="M981 13463 c-42 -43 -80 -185 -96 -358 -13 -149 28 -391 99 -573 103
-268 235 -460 628 -917 316 -368 397 -478 512 -696 112 -213 158 -381 159
-579 1 -203 -47 -335 -162 -451 -31 -30 -83 -68 -116 -85 -53 -26 -71 -29
-150 -29 -75 0 -98 4 -135 24 -100 52 -144 120 -145 221 0 105 53 176 145 195
78 16 110 61 86 120 -21 50 -47 60 -161 60 -91 0 -106 -3 -167 -32 -218 -103
-307 -380 -196 -612 21 -45 54 -89 102 -137 117 -117 236 -164 416 -164 124 0
194 16 305 69 176 84 333 246 421 435 87 188 122 404 103 625 -26 312 -127
573 -352 911 -94 142 -192 268 -437 565 -114 138 -238 293 -277 345 -262 354
-395 647 -434 952 -10 73 -17 97 -35 115 -32 32 -78 30 -113 -4z m177 -753
c103 -196 254 -411 482 -686 353 -426 442 -543 556 -727 163 -262 266 -564
263 -771 l-1 -81 -13 75 c-40 233 -135 458 -296 698 -91 138 -188 259 -406
512 -316 367 -420 508 -531 720 -63 121 -102 227 -127 348 -20 96 -18 108 8
47 11 -27 41 -88 65 -135z m355 -2980 l22 -25 -29 25 c-27 24 -86 115 -86 134
0 6 16 -17 36 -50 19 -32 45 -70 57 -84z"/>
<path d="M1305 5552 c-46 -9 -63 -41 -94 -172 -98 -413 -145 -818 -145 -1255
0 -419 29 -734 100 -1085 115 -574 295 -1058 530 -1426 369 -577 903 -906
1474 -908 218 0 385 38 580 133 374 183 610 535 610 911 0 229 -77 410 -241
564 -128 120 -273 180 -434 179 -164 -1 -299 -56 -415 -172 -58 -57 -87 -95
-116 -155 -36 -75 -39 -86 -42 -185 -4 -116 13 -191 65 -280 58 -99 164 -191
220 -191 75 0 109 87 58 148 -89 106 -83 252 13 349 101 101 286 78 412 -52
90 -91 120 -166 120 -298 0 -163 -58 -296 -185 -422 -142 -141 -308 -205 -536
-205 -337 0 -657 161 -972 490 -302 315 -507 697 -601 1122 -116 521 -42 1091
205 1567 72 139 74 166 22 213 -21 18 -79 73 -129 123 -218 215 -364 536 -390
855 -4 47 -13 97 -20 111 -14 29 -56 48 -89 41z m34 -597 c25 -79 123 -262
189 -355 37 -52 107 -135 155 -184 l89 -88 -45 -97 c-119 -253 -185 -473 -229
-766 -17 -120 -18 -540 0 -655 81 -517 276 -948 603 -1324 234 -271 497 -462
781 -566 89 -33 -3 -13 -122 26 -204 68 -411 195 -592 364 -349 326 -603 822
-777 1518 -102 410 -140 712 -148 1177 -6 355 8 598 47 864 11 73 20 136 20
139 0 15 17 -16 29 -53z m2462 -2651 c30 -9 70 -24 90 -34 111 -57 230 -201
270 -328 23 -74 39 -279 20 -252 -6 8 -11 32 -11 53 0 53 -44 178 -84 240 -18
29 -60 77 -92 108 -198 186 -452 207 -634 52 -24 -21 -40 -31 -35 -23 45 78
139 151 234 181 71 23 171 24 242 3z"/>
</g>
</svg>
